/* XPM */
static char * hilite_xpm[] = {
"19 19 13 1",
" 	c None",
".	c #72675B",
"+	c #706559",
"@	c #6F6559",
"#	c #6D6459",
"$	c #6D6358",
"%	c #6B6157",
"&	c #6A6057",
"*	c #6A5F55",
"=	c #695F55",
"-	c #675E54",
";	c #675D53",
">	c #665D53",
"...................",
"+++@@+++@@+++@@+++@",
"#$$$$#$$$$#$$$$#$$$",
"%%%%&%%%%&%%%%&%%%%",
"***==***==***==***=",
"-;;;;-;;;;-;;;;-;;;",
">>>>>>>>>>>>>>>>>>>",
">>>>>>>>>>>>>>>>>>>",
">>>>>>>>>>>>>>>>>>>",
">>>>>>>>>>>>>>>>>>>",
">>>>>>>>>>>>>>>>>>>",
">>>>>>>>>>>>>>>>>>>",
">>>>>>>>>>>>>>>>>>>",
">>>>>>>>>>>>>>>>>>>",
">>>>>>>>>>>>>>>>>>>",
">>>>>>>>>>>>>>>>>>>",
">>>>>>>>>>>>>>>>>>>",
">>>>>>>>>>>>>>>>>>>",
">>>>>>>>>>>>>>>>>>>"};
