/* XPM */
static char * hilite_unselect_xpm[] = {
"19 19 2 1",
" 	c None",
".	c #E3DDD3",
"                   ",
"                   ",
"                   ",
"                   ",
"                   ",
"                   ",
"                   ",
"          ......   ",
"          .    .   ",
"          .    .   ",
"          .    .   ",
"          .    .   ",
"          ......   ",
"                   ",
"                   ",
"                   ",
"                   ",
"                   ",
"                   "};
