/* XPM */
static char * toolbar_focused_xpm[] = {
"21 21 15 1",
" 	c None",
".	c #9D9185",
"+	c #4E4438",
"@	c #494135",
"#	c #4B4135",
"$	c #6D6358",
"%	c #6D6459",
"&	c #6A6057",
"*	c #6B6157",
"=	c #695F55",
"-	c #6A5F55",
";	c #675D53",
">	c #675E54",
",	c #665D53",
"'	c #393129",
".....................",
"+++++++++++++++++++++",
"@###@@###@@###@@###@@",
"$%$$$$%$$$$%$$$$%$$$$",
"&****&****&****&****&",
"=---==---==---==---==",
";>;;;;>;;;;>;;;;>;;;;",
",,,,,,,,,,,,,,,,,,,,,",
",,,,,,,,,,,,,,,,,,,,,",
",,,,,,,,,,,,,,,,,,,,,",
",,,,,,,,,,,,,,,,,,,,,",
",,,,,,,,,,,,,,,,,,,,,",
",,,,,,,,,,,,,,,,,,,,,",
",,,,,,,,,,,,,,,,,,,,,",
",,,,,,,,,,,,,,,,,,,,,",
",,,,,,,,,,,,,,,,,,,,,",
",,,,,,,,,,,,,,,,,,,,,",
",,,,,,,,,,,,,,,,,,,,,",
"'''''''''''''''''''''",
"'''''''''''''''''''''",
"....................."};
