/* XPM */
static char * close_focused_xpm[] = {
"21 21 87 1",
" 	c None",
".	c #525252",
"+	c #535353",
"@	c #4F4F4F",
"#	c #4C4C4C",
"$	c #686868",
"%	c #494949",
"&	c #636363",
"*	c #BF0000",
"=	c #BE0000",
"-	c #BD0000",
";	c #BC0000",
">	c #BB0000",
",	c #BA0000",
"'	c #474747",
")	c #606060",
"!	c #B90000",
"~	c #B80000",
"{	c #B70000",
"]	c #B60000",
"^	c #B50000",
"/	c #B40000",
"(	c #464646",
"_	c #5C5C5C",
":	c #B30000",
"<	c #B20000",
"[	c #B10000",
"}	c #B00000",
"|	c #AF0000",
"1	c #AE0000",
"2	c #AD0000",
"3	c #444444",
"4	c #595959",
"5	c #FFFFFF",
"6	c #AC0000",
"7	c #AA0000",
"8	c #A90000",
"9	c #A80000",
"0	c #2A2A2A",
"a	c #585858",
"b	c #AB0000",
"c	c #A60000",
"d	c #272727",
"e	c #555555",
"f	c #A30000",
"g	c #A10000",
"h	c #A00000",
"i	c #353535",
"j	c #740000",
"k	c #720000",
"l	c #710000",
"m	c #6F0000",
"n	c #6E0000",
"o	c #680000",
"p	c #670000",
"q	c #650000",
"r	c #630000",
"s	c #620000",
"t	c #313131",
"u	c #690000",
"v	c #660000",
"w	c #5A0000",
"x	c #580000",
"y	c #560000",
"z	c #550000",
"A	c #640000",
"B	c #5E0000",
"C	c #540000",
"D	c #520000",
"E	c #5C0000",
"F	c #5B0000",
"G	c #590000",
"H	c #500000",
"I	c #600000",
"J	c #5F0000",
"K	c #530000",
"L	c #510000",
"M	c #4D0000",
"N	c #610000",
"O	c #4F0000",
"P	c #4A0000",
"Q	c #4E0000",
"R	c #4C0000",
"S	c #4B0000",
"T	c #480000",
"U	c #262626",
"V	c #202020",
".....................",
"+++++++++++++++++++++",
"@@@@@@@@@@@@@@@@@@@@@",
"###$$$$$$$$$$$$$$$###",
"%%%&******==-;;>,&%%%",
"'''),,,,,!~~{]]^/)'''",
"(((_^^^//:<[[}|12_(((",
"3334[[}55126557894333",
"000a}|1555b5559cca000",
"dddeb78955555fggheddd",
"dddijklmn555opqrsiddd",
"dddtuovq55555wxyztddd",
"dddtpvA555B555yCDtddd",
"dddtqrs55EFG55CDHtddd",
"dddtrsIJEwGyzKLHMtddd",
"dddtNIBEwGyzDLOMPtddd",
"dddtJBEwxyCDHQRSTtddd",
"dddtttttttttttttttddd",
"UUUUUUUUUUUUUUUUUUUUU",
"ddddddddddddddddddddd",
"VVVVVVVVVVVVVVVVVVVVV"};
