/* XPM */
static char * close_unfocused2_xpm[] = {
"21 21 40 1",
" 	c None",
".	c #525252",
"+	c #535353",
"@	c #4F4F4F",
"#	c #4C4C4C",
"$	c #686868",
"%	c #494949",
"&	c #636363",
"*	c #292929",
"=	c #282828",
"-	c #474747",
";	c #606060",
">	c #272727",
",	c #262626",
"'	c #464646",
")	c #5C5C5C",
"!	c #252525",
"~	c #444444",
"{	c #595959",
"]	c #FFFFFF",
"^	c #242424",
"/	c #2A2A2A",
"(	c #585858",
"_	c #232323",
":	c #555555",
"<	c #222222",
"[	c #353535",
"}	c #191919",
"|	c #181818",
"1	c #171717",
"2	c #161616",
"3	c #151515",
"4	c #313131",
"5	c #131313",
"6	c #121212",
"7	c #141414",
"8	c #111111",
"9	c #101010",
"0	c #0F0F0F",
"a	c #202020",
".....................",
"+++++++++++++++++++++",
"@@@@@@@@@@@@@@@@@@@@@",
"###$$$$$$$$$$$$$$$###",
"%%%&******=======&%%%",
"---;=====>>>>>>,,;---",
"'''),,,,,,,,,!!!!)'''",
"~~~{,,!]]!!!]]^^^{~~~",
"///(!!!]]]^]]]^__(///",
">>>:^^^^]]]]]_<<<:>>>",
">>>[}|||1]]]22333[>>>",
">>>42223]]]]]55664>>>",
">>>4223]]]7]]]6684>>>",
">>>4333]]755]]6884>>>",
">>>433777556668894>>>",
">>>437775566888994>>>",
">>>477755668889904>>>",
">>>444444444444444>>>",
",,,,,,,,,,,,,,,,,,,,,",
">>>>>>>>>>>>>>>>>>>>>",
"aaaaaaaaaaaaaaaaaaaaa"};
