/* XPM */
static char * menu_highlight_xpm[] = {
"21 21 21 1",
" 	g None",
".	g #F3F3F3",
"+	g #BABABA",
"@	g #CACACA",
"#	g #C9C9C9",
"$	g #C7C7C7",
"%	g #C6C6C6",
"&	g #C4C4C4",
"*	g #C3C3C3",
"=	g #C1C1C1",
"-	g #BFBFBF",
";	g #BEBEBE",
">	g #BCBCBC",
",	g #BBBBBB",
"'	g #B8B8B8",
")	g #B6B6B6",
"!	g #B5B5B5",
"~	g #B3B3B3",
"{	g #B2B2B2",
"]	g #B0B0B0",
"^	g #AFAFAF",
".....................",
".....................",
".....................",
".....................",
".....................",
".....................",
".....................",
".....................",
".....................",
".....................",
"+++++++++++++++++++++",
"@@@##################",
"$$$$$$$$$$$%%%%%%%%%%",
"&&&&&&&&&&&&&&&&&&***",
"=====================",
"-;;;;;;;;;;;;;;;;;;;;",
">>>>>>>>>,,,,,,,,,,,,",
"'''''''''''''''''''''",
")!!!!!!!!!!!!!!!!!!!!",
"~~~~~~{{{{{{{{{{{{{{{",
"]]]]]]]]]]]]]]^^^^^^^"};
