/* XPM */
static char * stick_unfocused2_xpm[] = {
"21 21 31 1",
" 	c None",
".	c #525252",
"+	c #535353",
"@	c #4F4F4F",
"#	c #4C4C4C",
"$	c #5B5B5B",
"%	c #494949",
"&	c #565656",
"*	c #888888",
"=	c #474747",
"-	c #545454",
";	c #848484",
">	c #464646",
",	c #515151",
"'	c #818181",
")	c #444444",
"!	c #7E7E7E",
"~	c #A8A8A8",
"{	c #2A2A2A",
"]	c #424242",
"^	c #717171",
"/	c #9C9C9C",
"(	c #272727",
"_	c #3F3F3F",
":	c #6E6E6E",
"<	c #9B9B9B",
"[	c #2E2E2E",
"}	c #2C2C2C",
"|	c #4D4D4D",
"1	c #262626",
"2	c #202020",
".....................",
"+++++++++++++++++++++",
"@@@@@@@@@@@@@@@@@@@@@",
"###$$$$$$$$$$$$$$$###",
"%%%&*************&%%%",
"===-;;;;;;;;;;;;;-===",
">>>,''''''''''''',>>>",
")))@!!!!!!~!!!!!!@)))",
"{{{]^^^^^^/^^^^^^]{{{",
"(((_::::::<::::::_(((",
"((([...<<<<<<<...[(((",
"(((}||||||<||||||}(((",
"(((}||||||<||||||}(((",
"(((}||||||<||||||}(((",
"(((}|||||||||||||}(((",
"(((}|||||||||||||}(((",
"(((}|||||||||||||}(((",
"(((}}}}}}}}}}}}}}}(((",
"111111111111111111111",
"(((((((((((((((((((((",
"222222222222222222222"};
