/* XPM */
static char * maximize_focused_xpm[] = {
"21 21 36 1",
" 	c None",
".	c #525252",
"+	c #535353",
"@	c #4F4F4F",
"#	c #4C4C4C",
"$	c #686868",
"%	c #494949",
"&	c #636363",
"*	c #8F8F8F",
"=	c #909090",
"-	c #474747",
";	c #606060",
">	c #8B8B8B",
",	c #8C8C8C",
"'	c #464646",
")	c #5C5C5C",
"!	c #878787",
"~	c #888888",
"{	c #444444",
"]	c #595959",
"^	c #848484",
"/	c #858585",
"(	c #2A2A2A",
"_	c #585858",
":	c #FFFFFF",
"<	c #272727",
"[	c #555555",
"}	c #818181",
"|	c #828282",
"1	c #353535",
"2	c #565656",
"3	c #313131",
"4	c #505050",
"5	c #515151",
"6	c #262626",
"7	c #202020",
".....................",
"+++++++++++++++++++++",
"@@@@@@@@@@@@@@@@@@@@@",
"###$$$$$$$$$$$$$$$###",
"%%%&******=======&%%%",
"---;>>>>,,,,,,,,,;---",
"''')!!~~~~~~~~~~~)'''",
"{{{]^////////////]{{{",
"(((_^^^:::::::///_(((",
"<<<[}}}:::::::|||[<<<",
"<<<1222:22222:2221<<<",
"<<<3@@@:@@@@@:@@@3<<<",
"<<<3@@@:@@@44:44@3<<<",
"<<<3@44:::::::4553<<<",
"<<<344@45555555553<<<",
"<<<35445444455...3<<<",
"<<<355555..5555.53<<<",
"<<<333333333333333<<<",
"666666666666666666666",
"<<<<<<<<<<<<<<<<<<<<<",
"777777777777777777777"};
