/* XPM */
static char * minimize_unfocused1_xpm[] = {
"21 21 82 1",
" 	c None",
".	c #525252",
"+	c #535353",
"@	c #4F4F4F",
"#	c #4C4C4C",
"$	c #686868",
"%	c #494949",
"&	c #636363",
"*	c #A5A5A5",
"=	c #A4A4A4",
"-	c #A6A6A6",
";	c #A7A7A7",
">	c #A9A9A9",
",	c #AAAAAA",
"'	c #ABABAB",
")	c #ACACAC",
"!	c #ADADAD",
"~	c #AEAEAE",
"{	c #AFAFAF",
"]	c #474747",
"^	c #606060",
"/	c #9D9D9D",
"(	c #9E9E9E",
"_	c #9F9F9F",
":	c #A0A0A0",
"<	c #A2A2A2",
"[	c #A8A8A8",
"}	c #464646",
"|	c #5C5C5C",
"1	c #969696",
"2	c #979797",
"3	c #999999",
"4	c #9B9B9B",
"5	c #9C9C9C",
"6	c #A1A1A1",
"7	c #A3A3A3",
"8	c #444444",
"9	c #595959",
"0	c #909090",
"a	c #919191",
"b	c #939393",
"c	c #949494",
"d	c #989898",
"e	c #9A9A9A",
"f	c #2A2A2A",
"g	c #585858",
"h	c #929292",
"i	c #272727",
"j	c #555555",
"k	c #8B8B8B",
"l	c #8D8D8D",
"m	c #8F8F8F",
"n	c #959595",
"o	c #353535",
"p	c #4D4D4D",
"q	c #5A5A5A",
"r	c #5E5E5E",
"s	c #313131",
"t	c #3A3A3A",
"u	c #3D3D3D",
"v	c #404040",
"w	c #434343",
"x	c #454545",
"y	c #4B4B4B",
"z	c #4E4E4E",
"A	c #515151",
"B	c #565656",
"C	c #575757",
"D	c #3C3C3C",
"E	c #3F3F3F",
"F	c #424242",
"G	c #3E3E3E",
"H	c #414141",
"I	c #FFFFFF",
"J	c #484848",
"K	c #4A4A4A",
"L	c #5B5B5B",
"M	c #505050",
"N	c #5D5D5D",
"O	c #545454",
"P	c #262626",
"Q	c #202020",
".....................",
"+++++++++++++++++++++",
"@@@@@@@@@@@@@@@@@@@@@",
"###$$$$$$$$$$$$$$$###",
"%%%&*==*-;>,')!~{&%%%",
"]]]^//(_:<<*-;[>,^]]]",
"}}}|112345/(:67=*|}}}",
"88890abc1d3e5/_:69888",
"fffg0ahc123e4/(_6gfff",
"iiijklm0abn1dde5/jiii",
"iiio8]%p@.+jgq|r^oiii",
"iiistuvwx]y#zA+BCsiii",
"iiisDEFm0abcn2jCgsiii",
"iiisGHwIIIIIIIBgqsiii",
"iiisvwxJKp@A+BgqLsiii",
"iiisFx]%#@M+Bg9LNsiii",
"iiis8]%yp@+OCgq|rsiii",
"iiisssssssssssssssiii",
"PPPPPPPPPPPPPPPPPPPPP",
"iiiiiiiiiiiiiiiiiiiii",
"QQQQQQQQQQQQQQQQQQQQQ"};
