/* XPM */
static char * stuck_focused_xpm[] = {
"21 21 31 1",
" 	c None",
".	c #525252",
"+	c #535353",
"@	c #4F4F4F",
"#	c #4C4C4C",
"$	c #686868",
"%	c #494949",
"&	c #636363",
"*	c #B0B0B0",
"=	c #474747",
"-	c #606060",
";	c #ABABAB",
">	c #464646",
",	c #5C5C5C",
"'	c #A7A7A7",
")	c #444444",
"!	c #595959",
"~	c #A3A3A3",
"{	c #FFFFFF",
"]	c #2A2A2A",
"^	c #585858",
"/	c #A2A2A2",
"(	c #272727",
"_	c #555555",
":	c #9D9D9D",
"<	c #353535",
"[	c #6C6C6C",
"}	c #313131",
"|	c #646464",
"1	c #262626",
"2	c #202020",
".....................",
"+++++++++++++++++++++",
"@@@@@@@@@@@@@@@@@@@@@",
"###$$$$$$$$$$$$$$$###",
"%%%&*************&%%%",
"===-;;;;;;;;;;;;;-===",
">>>,''''''''''''',>>>",
")))!~~~~~~{~~~~~~!)))",
"]]]^//////{//////^]]]",
"(((_::::::{::::::_(((",
"(((<[[[{{{{{{{[[[<(((",
"(((}&&&|&&{&&&&&&}(((",
"(((}|&&&&&{&&&&&&}(((",
"(((}&&&&&&{&&&&&&}(((",
"(((}&&|&&&&&&&&&&}(((",
"(((}&&&&&&&&&&&&&}(((",
"(((}&&&&|&&&&&|&&}(((",
"(((}}}}}}}}}}}}}}}(((",
"111111111111111111111",
"(((((((((((((((((((((",
"222222222222222222222"};
